# xmcd CD database file
#
# Track frame offsets:
#	150
#	16103
#	39929
#	56675
#	76474
#	91065
#	106659
#	121460
#	135847
#	148930
#	164589
#	178870
#	194344
#	208087
#	222907
#
# Disc length: 3235 seconds
#
# Revision: 0
# Processed by: cddbd v1.5.2PL0 Copyright (c) Steve Scherf et al.
# Submitted via: CDex 1.70beta2
#
DISCID=cd0ca10f
DTITLE=Various Artist - CDX Volume 516
DYEAR=2011
DGENRE=Country
TTITLE0=Carter's Chord - A Little Less Comfortable
TTITLE1=Jamey Johnson - Hearthache
TTITLE2=Mark Wills - Looking For America
TTITLE3=Aaron Lewis - Country Boy
TTITLE4=Charley Pride - Except For You
TTITLE5=Chase Rice - Buzz Back
TTITLE6=Raina Bauman - Harley Man
TTITLE7=Bridgette Tatum - Hillbilly Rock Star
TTITLE8=Royal Wade Kimes - I'm An Ole Song
TTITLE9=Jacob Lyda - I'm Doing Alright
TTITLE10=John Maines Jr. - If You Could Only See Me Now
TTITLE11=Sabastian Roberts - It's Still Country To Me
TTITLE12=Steve Free - River Town
TTITLE13=Sarah Turner - Youngstown
TTITLE14=Timothy Craig - One Small Miracle
EXTD=YEAR: 2011
EXTT0=
EXTT1=
EXTT2=
EXTT3=
EXTT4=
EXTT5=
EXTT6=
EXTT7=
EXTT8=
EXTT9=
EXTT10=
EXTT11=
EXTT12=
EXTT13=
EXTT14=
PLAYORDER=
